<svg viewBox="0 0 600 400" xmlns="http://www.w3.org/2000/svg">
<g transform="translate(72, 364)">
<g>
<g>
<path d="M0,-313.6966 L0,-313.6966 L1.6053512,-78.529076 L3.2107024,-274.322 L4.8160534,-133.07806 L6.421405,-186.61935 L8.026756,-46.81542 L9.632107,-158.5725 L11.237458,-247.49821 L12.84281,-90.94853 L14.44816,-159.1271 L16.053513,-227.86952 L17.658863,-266.26627 L19.264214,-223.85495 L20.869566,-200.99995 L22.474916,-274.80725 L24.080267,-201.71448 L25.68562,-182.90105 L27.29097,-68.47452 L28.89632,-69.10753 L30.501673,-317.1668 L32.107025,-203.17061 L33.712376,-271.5764 L35.317726,-227.42506 L36.923077,-314.43112 L38.528427,-180.14232 L40.133778,-204.55446 L41.739132,-225.75424 L43.344482,-293.367 L44.949833,-202.92961 L46.555183,-203.50665 L48.160534,-291.55423 L49.765884,-156.67259 L51.37124,-156.09462 L52.97659,-208.19849 L54.58194,-290.03253 L56.18729,-247.7945 L57.79264,-275.61502 L59.397995,-201.70265 L61.003345,-156.57867 L62.608696,-161.05919 L64.21405,-92.36542 L65.8194,-179.57314 L67.42475,-181.469 L69.0301,-247.76715 L70.63545,-203.09547 L72.2408,-227.18425 L73.84615,-226.00291 L75.45151,-203.42505 L77.056854,-203.70831 L78.66221,-0 L80.267555,-317.29526 L81.87291,-247.06401 L83.478264,-181.27664 L85.08361,-248.47116 L86.688965,-156.39081 L88.29431,-202.67076 L89.899666,-203.07245 L91.50502,-315.85654 L93.11037,-156.76808 L94.71572,-227.93758 L96.32107,-157.34926 L97.92642,-294.15372 L99.53177,-113.73746 L101.13712,-181.1339 L102.74248,-203.7222 L104.347824,-316.0739 L105.95318,-113.298 L107.558525,-158.88206 L109.16388,-180.8358 L110.76923,-292.73892 L112.37458,-225.83852 L113.979935,-248.23602 L115.58528,-44.359528 L117.190636,-293.24573 L118.79599,-67.19607 L120.40134,-200.86073 L122.00669,-158.0805 L123.61204,-158.73802 L125.21739,-315.9121 L126.82275,-135.51369 L128.4281,-223.90126 L130.03345,-134.84048 L131.6388,-248.01514 L133.24414,-134.84651 L134.8495,-177.19487 L136.45485,-180.74454 L138.0602,-130.43388 L139.66556,-231.25705 L141.2709,-118.831154 L142.87625,-134.22946 L144.4816,-183.03552 L146.08696,-131.84161 L147.6923,-134.05505 L149.29765,-159.59607 L150.90302,-249.59978 L152.50836,-203.02078 L154.11371,-226.64749 L155.71907,-228.35013 L157.32442,-159.17636 L158.92976,-227.5522 L160.53511,-158.17668 L162.14047,-269.92972 L163.74582,-157.52832 L165.35117,-226.03949 L166.95653,-180.9231 L168.56187,-249.66405 L170.16722,-225.01877 L171.77257,-182.1967 L173.37793,-202.82843 L174.98328,-201.87085 L176.58862,-157.2467 L178.19398,-182.29555 L179.79933,-67.0848 L181.40468,-203.69304 L183.01004,-157.67719 L184.61539,-158.50117 L186.22073,-181.28871 L187.82608,-135.46556 L189.43144,-225.27571 L191.03679,-158.34946 L192.64214,-113.80198 L194.2475,-135.26917 L195.85284,-247.67763 L197.45819,-292.97507 L199.06354,-202.86613 L200.6689,-226.28583 L202.27425,-271.82047 L203.8796,-225.64824 L205.48495,-67.84728 L207.0903,-67.58093 L208.69565,-271.05075 L210.30101,-180.56953 L211.90636,-225.10191 L213.5117,-203.91635 L215.11705,-202.34024 L216.72241,-203.13412 L218.32776,-340 L219.9331,-180.534 L221.53847,-248.40292 L223.14381,-158.26932 L224.74916,-136.26762 L226.3545,-248.1547 L227.95987,-203.77394 L229.56522,-180.91516 L231.17056,-271.4633 L232.77592,-112.82041 L234.38127,-203.18811 L235.98662,-67.94026 L237.59198,-226.59108 L239.19733,-158.28467 L240.80267,-226.63507 L242.40802,-180.84865 L244.01338,-180.1086 L245.61873,-203.60498 L247.22408,-157.9507 L248.82944,-293.73315 L250.43478,-270.83813 L252.04013,-180.58179 L253.6455,-203.60316 L255.25084,-249.15558 L256.8562,-248.42923 L258.46155,-179.53795 L260.0669,-180.61362 L261.67224,-90.449036 L263.2776,-271.05704 L264.88293,-270.93008 L266.48828,-203.01932 L268.09366,-45.350147 L269.699,-181.2122 L271.30435,-270.70755 L272.9097,-203.34622 L274.51505,-158.4696 L276.1204,-89.86389 L277.72574,-226.31499 L279.33112,-226.4792 L280.93646,-158.22757 L282.5418,-180.28128 L284.14716,-202.77289 L285.7525,-181.0679 L287.35785,-202.88959 L288.9632,-271.0165 L290.56857,-271.36118 L292.17392,-180.78845 L293.77927,-181.15286 L295.3846,-67.89472 L296.98996,-157.67426 L298.5953,-135.17358 L300.20068,-112.79256 L301.80603,-157.53548 L303.41138,-225.38103 L305.01672,-225.94263 L306.62207,-135.31996 L308.22742,-293.66656 L309.83276,-203.17319 L311.43814,-248.0681 L313.0435,-293.8897 L314.64883,-181.16805 L316.25418,-225.69379 L317.85953,-271.25836 L319.46487,-248.39008 L321.07022,-293.87262 L322.6756,-225.90674 L324.28094,-135.49152 L325.8863,-180.61464 L327.49164,-293.34518 L329.097,-271.17444 L330.70233,-248.38455 L332.30768,-270.80432 L333.91306,-270.80286 L335.5184,-202.43478 L337.12375,-135.58864 L338.7291,-203.0069 L340.33444,-248.33987 L341.9398,-225.944 L343.54514,-180.94672 L345.1505,-158.01349 L346.75586,-112.5645 L348.3612,-158.10182 L349.96655,-158.61382 L351.5719,-45.03532 L353.17725,-203.04657 L354.78262,-135.5713 L356.38797,-202.80153 L357.99332,-157.78665 L359.59866,-112.78557 L361.204,-90.69607 L362.80936,-67.74291 L364.4147,-135.41777 L366.02008,-270.964 L367.62543,-248.43199 L369.23077,-180.88539 L370.83612,-135.2614 L372.44147,-248.37059 L374.0468,-202.95299 L375.65216,-112.53845 L377.25754,-225.72708 L378.86288,-135.52481 L380.46823,-248.57967 L382.07358,-180.4292 L383.67892,-180.69289 L385.28427,-135.00151 L386.88962,-226.10988 L388.495,-203.30067 L390.10034,-225.95358 L391.7057,-158.08017 L393.31104,-225.61987 L394.91638,-203.37218 L396.52173,-225.16168 L398.12708,-203.24065 L399.73245,-112.89045 L401.3378,-180.45326 L402.94315,-203.25531 L404.5485,-158.30219 L406.15384,-45.432777 L407.7592,-180.49596 L409.36456,-112.663 L410.9699,-225.8405 L412.57526,-316.0784 L414.1806,-203.20622 L415.78595,-158.41638 L417.3913,-157.72592 L418.99664,-180.56944 L420.60202,-225.8166 L422.20737,-135.13771 L423.8127,-248.68489 L425.41806,-225.46176 L427.0234,-202.7897 L428.62875,-203.4611 L430.2341,-158.26122 L431.83948,-135.35541 L433.44482,-113.009995 L435.05017,-203.23668 L436.65552,-112.696465 L438.26086,-90.28507 L439.8662,-248.68645 L441.47156,-294.015 L443.07693,-203.51915 L444.68228,-158.21869 L446.28763,-270.90463 L447.89297,-315.8555 L449.49832,-225.87932 L451.10367,-67.41454 L452.709,-203.37952 L454.3144,-248.23422 L455.91974,-203.16077 L457.5251,-90.31431 L459.13043,-67.06721 L460.73578,-135.58087 L462.34113,-112.76219 L463.9465,-135.45132 L465.55185,-248.38309 L467.1572,-293.42953 L468.76254,-180.82338 L470.3679,-203.37088 L471.97324,-225.47505 L473.57858,-90.0722 L475.18396,-248.31425 L476.7893,-157.83952 L478.39465,-135.35378 L480,-248.30745" fill="none" stroke="#35C788" stroke-linejoin="round" stroke-width="2"/>
</g>
</g>
<g>
<g>
<line stroke="black" stroke-width="1" x1="0" x2="0" y1="0" y2="10"/>
<line stroke="black" stroke-width="1" x1="80.2675585284281" x2="80.2675585284281" y1="0" y2="10"/>
<line stroke="black" stroke-width="1" x1="160.5351170568562" x2="160.5351170568562" y1="0" y2="10"/>
<line stroke="black" stroke-width="1" x1="240.80267558528428" x2="240.80267558528428" y1="0" y2="10"/>
<line stroke="black" stroke-width="1" x1="321.0702341137124" x2="321.0702341137124" y1="0" y2="10"/>
<line stroke="black" stroke-width="1" x1="401.33779264214047" x2="401.33779264214047" y1="0" y2="10"/>
</g>
<line stroke="black" stroke-width="1" x1="0" x2="480" y1="0" y2="0"/>
<g>
<text font-size="12" text-anchor="middle" x="0" y="20">
0
</text>
<text font-size="12" text-anchor="middle" x="80.2675585284281" y="20">
50
</text>
<text font-size="12" text-anchor="middle" x="160.5351170568562" y="20">
100
</text>
<text font-size="12" text-anchor="middle" x="240.80267558528428" y="20">
150
</text>
<text font-size="12" text-anchor="middle" x="321.0702341137124" y="20">
200
</text>
<text font-size="12" text-anchor="middle" x="401.33779264214047" y="20">
250
</text>
</g>
<text font-size="12" text-anchor="middle" x="240" y="30">
Epochs
</text>
</g>
<g>
<g>
<line stroke="black" stroke-width="1" x1="0" x2="-10" y1="0.005760403138242137" y2="0.005760403138242137"/>
<line stroke="black" stroke-width="1" x1="0" x2="-10" y1="-57.87792524579047" y2="-57.87792524579047"/>
<line stroke="black" stroke-width="1" x1="0" x2="-10" y1="-115.76161089471934" y2="-115.76161089471934"/>
<line stroke="black" stroke-width="1" x1="0" x2="-10" y1="-173.64529654364821" y2="-173.64529654364821"/>
<line stroke="black" stroke-width="1" x1="0" x2="-10" y1="-231.52898219257693" y2="-231.52898219257693"/>
<line stroke="black" stroke-width="1" x1="0" x2="-10" y1="-289.41266784150577" y2="-289.41266784150577"/>
</g>
<line stroke="black" stroke-width="1" x1="0" x2="0" y1="0" y2="-340"/>
<g>
<text dominant-baseline="middle" font-size="12" text-anchor="end" x="-15" y="0.005760403138242137">
0.53146
</text>
<text dominant-baseline="middle" font-size="12" text-anchor="end" x="-15" y="-57.87792524579047">
0.57146
</text>
<text dominant-baseline="middle" font-size="12" text-anchor="end" x="-15" y="-115.76161089471934">
0.61146
</text>
<text dominant-baseline="middle" font-size="12" text-anchor="end" x="-15" y="-173.64529654364821">
0.65146
</text>
<text dominant-baseline="middle" font-size="12" text-anchor="end" x="-15" y="-231.52898219257693">
0.69146
</text>
<text dominant-baseline="middle" font-size="12" text-anchor="end" x="-15" y="-289.41266784150577">
0.73146
</text>
</g>
<text font-size="12" text-anchor="middle" transform="rotate(-90 -84 -170)" x="-84" y="-182">
Loss
</text>
</g>
</g>
</svg>