<svg viewBox="0 0 600 400" xmlns="http://www.w3.org/2000/svg">
<g transform="translate(72, 364)">
<g>
<g>
<path d="M0,-167.06107 L0,-167.06107 L1.6053512,-275.45142 L3.2107024,-138.9406 L4.8160534,-123.30746 L6.421405,-180.93114 L8.026756,-155.94475 L9.632107,-157.90286 L11.237458,-183.68132 L12.84281,-245.51103 L14.44816,-120.19049 L16.053513,-244.14024 L17.658863,-279.1333 L19.264214,-200.19043 L20.869566,-161.46835 L22.474916,-238.23523 L24.080267,-219.07576 L25.68562,-118.72034 L27.29097,-261.5121 L28.89632,-259.13266 L30.501673,-159.93495 L32.107025,-157.82419 L33.712376,-158.48167 L35.317726,-300.77933 L36.923077,-181.01363 L38.528427,-78.61797 L40.133778,-197.6829 L41.739132,-157.79865 L43.344482,-259.73734 L44.949833,-141.32951 L46.555183,-119.00123 L48.160534,-159.25175 L49.765884,-82.707695 L51.37124,-140.65985 L52.97659,-97.91055 L54.58194,-278.7533 L56.18729,-178.4234 L57.79264,-200.71991 L59.397995,-236.84856 L61.003345,-277.05765 L62.608696,-115.94569 L64.21405,-62.30028 L65.8194,-194.78427 L67.42475,-198.70985 L69.0301,-156.71246 L70.63545,-142.80377 L72.2408,-114.72731 L73.84615,-193.04607 L75.45151,-145.16989 L77.056854,-181.56758 L78.66221,-199.12051 L80.267555,-103.814186 L81.87291,-258.74225 L83.478264,-259.98416 L85.08361,-217.68437 L86.688965,-138.42563 L88.29431,-217.79947 L89.899666,-220.25423 L91.50502,-219.38243 L93.11037,-178.73698 L94.71572,-201.46748 L96.32107,-141.19154 L97.92642,-183.4512 L99.53177,-238.62582 L101.13712,-280.60727 L102.74248,-199.38956 L104.347824,-300.76144 L105.95318,-220.1161 L107.558525,-239.1499 L109.16388,-178.00558 L110.76923,-179.02502 L112.37458,-200.90274 L113.979935,-80.225105 L115.58528,-180.50688 L117.190636,-120.72636 L118.79599,-140.44145 L120.40134,-158.62634 L122.00669,-140.5643 L123.61204,-239.65735 L125.21739,-277.36273 L126.82275,-199.05788 L128.4281,-239.39926 L130.03345,-220.44359 L131.6388,-199.24481 L133.24414,-140.76218 L134.8495,-199.99042 L136.45485,-121.00436 L138.0602,-278.77838 L139.66556,-160.28708 L141.2709,-159.69504 L142.87625,-239.37334 L144.4816,-219.41649 L146.08696,-180.85132 L147.6923,-239.21924 L149.29765,-279.45364 L150.90302,-139.49637 L152.50836,-218.64246 L154.11371,-258.8689 L155.71907,-0 L157.32442,-219.05753 L158.92976,-258.59384 L160.53511,-177.77579 L162.14047,-217.77232 L163.74582,-201.73903 L165.35117,-198.68994 L166.95653,-99.00866 L168.56187,-157.62927 L170.16722,-197.0695 L171.77257,-220.74661 L173.37793,-201.56068 L174.98328,-141.14668 L176.58862,-238.42596 L178.19398,-141.50398 L179.79933,-122.05328 L181.40468,-140.88336 L183.01004,-239.28325 L184.61539,-179.2435 L186.22073,-120.50004 L187.82608,-199.4468 L189.43144,-298.0676 L191.03679,-160.01569 L192.64214,-159.4869 L194.2475,-180.11165 L195.85284,-181.0755 L197.45819,-100.467636 L199.06354,-200.47269 L200.6689,-119.764854 L202.27425,-160.98685 L203.8796,-219.32755 L205.48495,-199.65 L207.0903,-160.12143 L208.69565,-279.193 L210.30101,-121.381645 L211.90636,-239.61241 L213.5117,-259.40445 L215.11705,-158.30333 L216.72241,-220.20862 L218.32776,-200.00699 L219.9331,-159.52232 L221.53847,-220.31625 L223.14381,-239.43704 L224.74916,-239.47786 L226.3545,-140.3937 L227.95987,-80.83806 L229.56522,-219.50179 L231.17056,-79.48498 L232.77592,-220.00572 L234.38127,-178.6247 L235.98662,-238.66406 L237.59198,-180.08345 L239.19733,-218.06523 L240.80267,-179.77632 L242.40802,-137.2626 L244.01338,-141.76268 L245.61873,-199.1421 L247.22408,-198.944 L248.82944,-180.10648 L250.43478,-198.85217 L252.04013,-238.63982 L253.6455,-199.44034 L255.25084,-159.8299 L256.8562,-197.35625 L258.46155,-178.89441 L260.0669,-100.08617 L261.67224,-180.41565 L263.2776,-217.72633 L264.88293,-160.77641 L266.48828,-179.512 L268.09366,-322.47284 L269.699,-198.22478 L271.30435,-218.428 L272.9097,-175.79843 L274.51505,-139.39503 L276.1204,-202.40329 L277.72574,-59.6186 L279.33112,-217.26064 L280.93646,-177.52127 L282.5418,-201.23221 L284.14716,-255.23665 L285.7525,-85.00046 L287.35785,-197.61319 L288.9632,-198.91435 L290.56857,-140.13791 L292.17392,-182.87148 L293.77927,-239.79813 L295.3846,-96.88633 L296.98996,-219.56664 L298.5953,-120.72042 L300.20068,-218.49384 L301.80603,-340 L303.41138,-139.73842 L305.01672,-183.3038 L306.62207,-157.14326 L308.22742,-200.90736 L309.83276,-137.4515 L311.43814,-117.8011 L313.0435,-177.35052 L314.64883,-134.5686 L316.25418,-263.7125 L317.85953,-178.84918 L319.46487,-201.502 L321.07022,-183.64543 L322.6756,-219.697 L324.28094,-257.2309 L325.8863,-1.7543132 L327.49164,-122.240746 L329.097,-139.51082 L330.70233,-278.4885 L332.30768,-257.52545 L333.91306,-262.63513 L335.5184,-98.91705 L337.12375,-180.15338 L338.7291,-199.33376 L340.33444,-200.38412 L341.9398,-179.25551 L343.54514,-77.20529 L345.1505,-139.53871 L346.75586,-159.08855 L348.3612,-159.73988 L349.96655,-259.5355 L351.5719,-243.82916 L353.17725,-81.87383 L354.78262,-158.75345 L356.38797,-140.75381 L357.99332,-259.7888 L359.59866,-218.44298 L361.204,-181.22458 L362.80936,-238.43768 L364.4147,-139.71828 L366.02008,-240.88104 L367.62543,-139.88696 L369.23077,-138.61873 L370.83612,-180.70833 L372.44147,-159.65535 L374.0468,-219.9126 L375.65216,-218.37616 L377.25754,-160.38492 L378.86288,-299.08255 L380.46823,-298.97247 L382.07358,-280.24762 L383.67892,-160.50206 L385.28427,-158.13359 L386.88962,-219.25601 L388.495,-178.25105 L390.10034,-139.22482 L391.7057,-157.61574 L393.31104,-83.235954 L394.91638,-97.32253 L396.52173,-239.70189 L398.12708,-198.94841 L399.73245,-118.98412 L401.3378,-101.07793 L402.94315,-220.84772 L404.5485,-100.90475 L406.15384,-239.03087 L407.7592,-139.66643 L409.36456,-218.52486 L410.9699,-199.22786 L412.57526,-162.97795 L414.1806,-259.07315 L415.78595,-239.78468 L417.3913,-217.94945 L418.99664,-181.86931 L420.60202,-198.74248 L422.20737,-199.45645 L423.8127,-100.62485 L425.41806,-181.0863 L427.0234,-238.05415 L428.62875,-300.591 L430.2341,-139.79909 L431.83948,-197.83737 L433.44482,-199.42946 L435.05017,-239.07115 L436.65552,-199.84012 L438.26086,-219.46985 L439.8662,-139.23677 L441.47156,-159.37955 L443.07693,-199.00854 L444.68228,-239.071 L446.28763,-180.34274 L447.89297,-219.07211 L449.49832,-299.50485 L451.10367,-160.46922 L452.709,-119.28334 L454.3144,-261.64398 L455.91974,-121.343025 L457.5251,-240.0233 L459.13043,-20.550787 L460.73578,-198.8847 L462.34113,-80.448 L463.9465,-239.56459 L465.55185,-179.72775 L467.1572,-140.2546 L468.76254,-179.44 L470.3679,-159.60875 L471.97324,-139.24931 L473.57858,-179.50182 L475.18396,-239.07426 L476.7893,-198.54588 L478.39465,-259.0556 L480,-219.5797" fill="none" stroke="#35C788" stroke-linejoin="round" stroke-width="2"/>
</g>
</g>
<g>
<g>
<line stroke="black" stroke-width="1" x1="0" x2="0" y1="0" y2="10"/>
<line stroke="black" stroke-width="1" x1="80.2675585284281" x2="80.2675585284281" y1="0" y2="10"/>
<line stroke="black" stroke-width="1" x1="160.5351170568562" x2="160.5351170568562" y1="0" y2="10"/>
<line stroke="black" stroke-width="1" x1="240.80267558528428" x2="240.80267558528428" y1="0" y2="10"/>
<line stroke="black" stroke-width="1" x1="321.0702341137124" x2="321.0702341137124" y1="0" y2="10"/>
<line stroke="black" stroke-width="1" x1="401.33779264214047" x2="401.33779264214047" y1="0" y2="10"/>
</g>
<line stroke="black" stroke-width="1" x1="0" x2="480" y1="0" y2="0"/>
<g>
<text font-size="12" text-anchor="middle" x="0" y="20">
0
</text>
<text font-size="12" text-anchor="middle" x="80.2675585284281" y="20">
50
</text>
<text font-size="12" text-anchor="middle" x="160.5351170568562" y="20">
100
</text>
<text font-size="12" text-anchor="middle" x="240.80267558528428" y="20">
150
</text>
<text font-size="12" text-anchor="middle" x="321.0702341137124" y="20">
200
</text>
<text font-size="12" text-anchor="middle" x="401.33779264214047" y="20">
250
</text>
</g>
<text font-size="12" text-anchor="middle" x="240" y="30">
Epochs
</text>
</g>
<g>
<g>
<line stroke="black" stroke-width="1" x1="0" x2="-10" y1="0.005242508587971265" y2="0.005242508587971265"/>
<line stroke="black" stroke-width="1" x1="0" x2="-10" y1="-63.764944598958756" y2="-63.764944598958756"/>
<line stroke="black" stroke-width="1" x1="0" x2="-10" y1="-127.53513170650564" y2="-127.53513170650564"/>
<line stroke="black" stroke-width="1" x1="0" x2="-10" y1="-191.30531881405238" y2="-191.30531881405238"/>
<line stroke="black" stroke-width="1" x1="0" x2="-10" y1="-255.07550592159922" y2="-255.07550592159922"/>
<line stroke="black" stroke-width="1" x1="0" x2="-10" y1="-318.8456930291461" y2="-318.8456930291461"/>
</g>
<line stroke="black" stroke-width="1" x1="0" x2="0" y1="0" y2="-340"/>
<g>
<text dominant-baseline="middle" font-size="12" text-anchor="end" x="-15" y="0.005242508587971265">
0.51536
</text>
<text dominant-baseline="middle" font-size="12" text-anchor="end" x="-15" y="-63.764944598958756">
0.56536
</text>
<text dominant-baseline="middle" font-size="12" text-anchor="end" x="-15" y="-127.53513170650564">
0.61536
</text>
<text dominant-baseline="middle" font-size="12" text-anchor="end" x="-15" y="-191.30531881405238">
0.66536
</text>
<text dominant-baseline="middle" font-size="12" text-anchor="end" x="-15" y="-255.07550592159922">
0.71536
</text>
<text dominant-baseline="middle" font-size="12" text-anchor="end" x="-15" y="-318.8456930291461">
0.76536
</text>
</g>
<text font-size="12" text-anchor="middle" transform="rotate(-90 -84 -170)" x="-84" y="-182">
Loss
</text>
</g>
</g>
</svg>