<svg viewBox="0 0 600 400" xmlns="http://www.w3.org/2000/svg">
<g transform="translate(72, 364)">
<g>
<g>
<path d="M0,-201.36197 L0,-201.36197 L0.4804805,-290.89282 L0.960961,-93.26646 L1.4414414,-340 L1.921922,-279.57016 L2.4024024,-80.969864 L2.8828828,-0.9489219 L3.3633633,-334.85977 L3.843844,-256.23257 L4.324324,-131.97153 L4.804805,-1.6576533 L5.2852855,-329.41452 L5.7657657,-235.04546 L6.2462463,-160.05324 L6.7267265,-5.119822 L7.207207,-314.2549 L7.687688,-176.29544 L8.168168,-227.84286 L8.648648,-42.83832 L9.129129,-300.8592 L9.60961,-141.28502 L10.09009,-235.64874 L10.570571,-68.468704 L11.051051,-295.15915 L11.531531,-140.24734 L12.0120125,-222.42741 L12.492493,-61.979137 L12.972973,-284.78076 L13.453453,-125.44278 L13.933934,-221.4697 L14.414414,-69.21919 L14.894895,-274.01495 L15.375376,-115.329254 L15.855856,-220.07053 L16.336336,-74.60611 L16.816816,-260.1306 L17.297297,-105.417206 L17.777779,-219.71205 L18.258259,-80.46474 L18.738739,-244.26799 L19.21922,-97.138535 L19.6997,-219.3685 L20.18018,-84.72261 L20.66066,-232.03241 L21.141142,-92.124306 L21.621622,-218.5212 L22.102102,-86.51807 L22.582582,-225.53654 L23.063063,-89.63189 L23.543543,-217.33418 L24.024025,-86.797165 L24.504505,-222.34265 L24.984985,-88.334404 L25.465466,-216.06137 L25.945946,-86.42568 L26.426426,-220.71246 L26.906906,-87.5613 L27.387388,-214.79744 L27.867868,-85.77659 L28.348349,-219.89435 L28.828829,-87.03861 L29.309309,-213.55878 L29.78979,-84.99077 L30.27027,-219.55148 L30.750751,-86.64739 L31.231232,-212.33873 L31.711712,-84.12328 L32.192192,-219.51541 L32.672672,-86.3281 L33.153152,-211.12537 L33.633633,-83.19664 L34.114113,-219.69286 L34.594593,-86.04565 L35.075073,-209.90656 L35.555557,-82.21956 L36.036037,-220.02885 L36.516518,-85.77647 L36.996998,-208.6698 L37.477478,-81.19396 L37.95796,-220.48997 L38.43844,-85.50276 L38.91892,-207.40231 L39.3994,-80.1173 L39.87988,-221.05582 L40.36036,-85.20947 L40.84084,-206.08981 L41.32132,-78.98398 L41.801804,-221.71489 L42.282284,-84.88263 L42.762764,-204.71603 L43.243244,-77.785545 L43.723724,-222.46225 L44.204205,-84.50798 L44.684685,-203.26172 L45.165165,-76.51078 L45.645645,-223.29825 L46.126125,-84.0699 L46.606606,-201.70343 L47.087086,-75.145195 L47.567566,-224.22778 L48.04805,-83.550156 L48.52853,-200.01208 L49.00901,-73.670784 L49.48949,-225.26028 L49.96997,-82.92652 L50.45045,-198.15108 L50.93093,-72.065254 L51.41141,-226.40999 L51.89189,-82.17109 L52.37237,-196.07346 L52.85285,-70.301216 L53.333332,-227.69614 L53.813812,-81.24836 L54.294292,-193.71861 L54.774776,-68.345375 L55.255257,-229.14436 L55.735737,-80.11275 L56.216217,-191.00673 L56.696697,-66.15773 L57.177177,-230.78703 L57.657658,-78.70553 L58.138138,-187.83224 L58.618618,-63.69146 L59.0991,-232.66487 L59.57958,-76.95239 L60.06006,-184.05412 L60.54054,-60.894245 L61.021023,-234.82751 L61.501503,-74.76152 L61.981983,-179.48405 L62.462463,-57.71264 L62.942944,-237.33354 L63.423424,-72.0254 L63.903904,-173.87325 L64.384384,-54.103127 L64.86487,-240.2473 L65.345345,-68.628876 L65.82583,-166.90294 L66.306305,-50.05393 L66.78679,-243.63118 L67.267265,-64.46999 L67.74775,-158.19319 L68.228226,-45.62124 L68.70871,-247.5268 L69.189186,-59.49368 L69.66967,-147.36084 L70.15015,-40.975098 L70.63063,-251.91867 L71.111115,-53.73241 L71.59159,-134.17477 L72.072075,-36.424934 L72.55255,-256.6745 L73.033035,-47.330093 L73.51351,-118.83371 L73.993996,-32.367233 L74.47447,-261.4816 L74.954956,-40.537914 L75.43543,-102.265015 L75.91592,-29.120672 L76.39639,-265.85516 L76.87688,-33.7144 L77.35736,-86.1324 L77.83784,-26.738222 L78.31832,-269.30743 L78.7988,-27.332031 L79.27928,-72.253334 L79.75976,-24.996914 L80.24024,-271.59335 L80.72072,-21.85922 L81.2012,-61.69715 L81.68168,-23.619606 L82.16216,-272.7939 L82.64264,-17.5295 L83.12312,-54.41575 L83.60361,-22.465696 L84.08408,-273.17572 L84.56457,-14.275214 L85.045044,-49.686142 L85.52553,-21.503782 L86.006004,-273.01825 L86.48649,-11.872423 L86.966965,-46.70408 L87.44745,-20.720905 L87.927925,-272.5367 L88.40841,-10.088899 L88.888885,-44.852226 L89.36937,-20.092556 L89.84985,-271.8776 L90.33033,-8.742589 L90.810814,-43.71813 L91.29129,-19.588448 L91.771774,-271.13446 L92.25225,-7.704608 L92.732735,-43.03914 L93.21321,-19.180305 L93.693695,-270.36478 L94.17417,-6.886647 L94.654655,-42.64975 L95.13513,-18.84507 L95.615616,-269.6023 L96.0961,-6.2283645 L96.57658,-42.44553 L97.05706,-18.565065 L97.53754,-268.86572 L98.01802,-5.688182 L98.4985,-42.36006 L98.97898,-18.327175 L99.45946,-268.16418 L99.93994,-5.2370405 L100.42042,-42.350994 L100.9009,-18.121792 L101.38138,-267.5013 L101.86186,-4.854313 L102.34234,-42.39109 L102.82282,-17.941809 L103.30331,-266.87735 L103.78378,-4.5251203 L104.26427,-42.462856 L104.74474,-17.781994 L105.22523,-266.29077 L105.7057,-4.238533 L106.18619,-42.554897 L106.666664,-17.63846 L107.14715,-265.7391 L107.627625,-3.986413 L108.10811,-42.659893 L108.588585,-17.508215 L109.06907,-265.21948 L109.54955,-3.7625692 L110.03003,-42.773045 L110.51051,-17.388988 L110.99099,-264.72897 L111.47147,-3.5622501 L111.95195,-42.891296 L112.432434,-17.279007 L112.91291,-264.26483 L113.393394,-3.3817494 L113.87387,-43.01266 L114.354355,-17.17688 L114.83483,-263.82434 L115.315315,-3.2181163 L115.7958,-43.13583 L116.276276,-17.081469 L116.75676,-263.4051 L117.237236,-3.0689847 L117.71772,-43.26003 L118.1982,-16.991861 L118.67868,-263.0049 L119.15916,-2.9324293 L119.63964,-43.384766 L120.12012,-16.907345 L120.6006,-262.6219 L121.08108,-2.8068721 L121.56156,-43.509735 L122.042046,-16.82724 L122.52252,-262.25418 L123.003006,-2.6910028 L123.48348,-43.634815 L123.96397,-16.751062 L124.44444,-261.90033 L124.92493,-2.5837157 L125.4054,-43.75986 L125.88589,-16.678347 L126.36636,-261.55878 L126.84685,-2.4840705 L127.327324,-43.884964 L127.80781,-16.60872 L128.28828,-261.2284 L128.76877,-2.3912768 L129.24925,-44.010105 L129.72974,-16.541838 L130.2102,-260.9078 L130.69069,-2.3046455 L131.17117,-44.135414 L131.65166,-16.47743 L132.13213,-260.5962 L132.61261,-2.2235858 L133.0931,-44.260895 L133.57358,-16.415245 L134.05405,-260.29245 L134.53453,-2.1475866 L135.01501,-44.386692 L135.4955,-16.355066 L135.97598,-259.99582 L136.45645,-2.0761862 L136.93694,-44.512863 L137.41742,-16.29668 L137.8979,-259.70544 L138.37837,-2.0089974 L138.85886,-44.63955 L139.33934,-16.23993 L139.81982,-259.42065 L140.3003,-1.9456664 L140.78078,-44.766808 L141.26126,-16.18465 L141.74174,-259.14063 L142.22223,-1.8858807 L142.7027,-44.894844 L143.18318,-16.130705 L143.66367,-258.86478 L144.14415,-1.8293681 L144.62462,-45.023674 L145.1051,-16.07798 L145.58559,-258.59253 L146.06607,-1.7758774 L146.54654,-45.153484 L147.02702,-16.02636 L147.5075,-258.3233 L147.98799,-1.7251903 L148.46848,-45.28436 L148.94894,-15.975726 L149.42943,-258.0566 L149.90991,-1.6771103 L150.3904,-45.4164 L150.87086,-15.926003 L151.35135,-257.79178 L151.83183,-1.6314518 L152.31232,-45.54976 L152.79279,-15.877107 L153.27327,-257.52847 L153.75375,-1.588059 L154.23424,-45.68453 L154.71472,-15.828968 L155.19519,-257.26605 L155.67567,-1.5467857 L156.15616,-45.82087 L156.63664,-15.781493 L157.11711,-257.00418 L157.5976,-1.5074977 L158.07808,-45.95885 L158.55856,-15.7346325 L159.03903,-256.74228 L159.51952,-1.4700773 L160,-46.09866 L160.48048,-15.688377 L160.96097,-256.47995 L161.44144,-1.4344182 L161.92192,-46.24036 L162.4024,-15.642615 L162.88289,-256.21667 L163.36336,-1.4004215 L163.84384,-46.384075 L164.32433,-15.597372 L164.80481,-255.95198 L165.28528,-1.3679961 L165.76576,-46.530003 L166.24625,-15.552563 L166.72673,-255.68544 L167.20721,-1.3370633 L167.68768,-46.6782 L168.16817,-15.508187 L168.64865,-255.41653 L169.12914,-1.307549 L169.6096,-46.828815 L170.09009,-15.464236 L170.57057,-255.14476 L171.05106,-1.2793871 L171.53152,-46.98197 L172.01201,-15.420688 L172.4925,-254.8697 L172.97298,-1.2525241 L173.45346,-47.13777 L173.93393,-15.377542 L174.41441,-254.59071 L174.8949,-1.2269005 L175.37538,-47.29636 L175.85585,-15.33483 L176.33633,-254.3073 L176.81682,-1.2024723 L177.2973,-47.457794 L177.77777,-15.292556 L178.25826,-254.01888 L178.73874,-1.1791978 L179.21922,-47.622257 L179.6997,-15.250759 L180.18018,-253.72491 L180.66066,-1.1570452 L181.14114,-47.78973 L181.62163,-15.209509 L182.1021,-253.42467 L182.58258,-1.1359774 L183.06306,-47.9604 L183.54355,-15.168834 L184.02402,-253.11746 L184.5045,-1.1159729 L184.98499,-48.13428 L185.46547,-15.128871 L185.94595,-252.80261 L186.42642,-1.0970154 L186.9069,-48.311424 L187.38739,-15.089673 L187.86787,-252.47939 L188.34834,-1.0790868 L188.82883,-48.491844 L189.30931,-15.051424 L189.7898,-252.14693 L190.27026,-1.0621784 L190.75075,-48.67544 L191.23123,-15.014262 L191.71172,-251.80429 L192.1922,-1.0462915 L192.67267,-48.86224 L193.15315,-14.978423 L193.63364,-251.45049 L194.11412,-1.0314283 L194.59459,-49.052094 L195.07507,-14.94415 L195.55556,-251.08446 L196.03604,-1.0176004 L196.51651,-49.24481 L196.997,-14.91174 L197.47748,-250.70502 L197.95796,-1.0048274 L198.43845,-49.44011 L198.91891,-14.881568 L199.3994,-250.31087 L199.87988,-0.99313796 L200.36037,-49.637596 L200.84084,-14.854086 L201.32132,-249.90071 L201.8018,-0.9825719 L202.28229,-49.836678 L202.76276,-14.8298435 L203.24324,-249.47278 L203.72372,-0.9731757 L204.20421,-50.03669 L204.68468,-14.809503 L205.16516,-249.02545 L205.64565,-0.96501714 L206.12613,-50.236694 L206.60661,-14.793851 L207.08708,-248.5568 L207.56757,-0.9581713 L208.04805,-50.435482 L208.52853,-14.783895 L209.009,-248.0645 L209.48949,-0.95274174 L209.96997,-50.631413 L210.45045,-14.780843 L210.93092,-247.54628 L211.4114,-0.9488485 L211.89189,-50.82246 L212.37238,-14.786142 L212.85286,-246.99933 L213.33333,-0.94664145 L213.81381,-51.005993 L214.2943,-14.801648 L214.77478,-246.42061 L215.25525,-0.94630575 L215.73573,-51.178627 L216.21622,-14.829613 L216.6967,-245.80672 L217.17717,-0.9480684 L217.65765,-51.336 L218.13814,-14.872918 L218.61862,-245.1537 L219.0991,-0.95221096 L219.57957,-51.47253 L220.06006,-14.935092 L220.54054,-244.45732 L221.02103,-0.95908564 L221.5015,-51.581062 L221.98198,-15.020695 L222.46246,-243.7128 L222.94295,-0.96912885 L223.42342,-51.652397 L223.9039,-15.135508 L224.38438,-242.91492 L224.86487,-0.9828906 L225.34535,-51.674763 L225.82582,-15.28698 L226.3063,-242.05795 L226.78679,-1.0010657 L227.26727,-51.633118 L227.74774,-15.484815 L228.22823,-241.13605 L228.70871,-1.024541 L229.1892,-51.50845 L229.66966,-15.741662 L230.15015,-240.1431 L230.63063,-1.054459 L231.11111,-51.2768 L231.5916,-16.074213 L232.07207,-239.07341 L232.55255,-1.092289 L233.03304,-50.908672 L233.51352,-16.504574 L233.99399,-237.92215 L234.47447,-1.1399667 L234.95496,-50.36842 L235.43544,-17.062132 L235.91591,-236.68622 L236.3964,-1.2000213 L236.87688,-49.614983 L237.35736,-17.78578 L237.83784,-235.36542 L238.31831,-1.2758285 L238.7988,-48.603546 L239.27928,-18.726395 L239.75977,-233.96292 L240.24023,-1.3718793 L240.72072,-47.290527 L241.2012,-19.94906 L241.68169,-232.48611 L242.16216,-1.494166 L242.64264,-45.64177 L243.12312,-21.533024 L243.6036,-230.94524 L244.08409,-1.6505862 L244.56456,-43.64471 L245.04504,-23.566696 L245.52553,-229.3493 L246.00601,-1.8511497 L246.48648,-41.323555 L246.96696,-26.13291 L247.44745,-227.69794 L247.92793,-2.1074219 L248.4084,-38.752754 L248.88889,-29.280975 L249.36937,-225.96991 L249.84985,-2.4301078 L250.33034,-36.061054 L250.8108,-32.987946 L251.29129,-224.11388 L251.77177,-2.8238862 L252.25226,-33.416367 L252.73273,-37.126736 L253.21321,-222.051 L253.6937,-3.2803483 L254.17418,-30.987906 L254.65465,-41.468132 L255.13513,-219.69542 L255.61562,-3.77425 L256.0961,-28.90099 L256.57657,-45.72943 L257.05707,-216.97826 L257.53754,-4.2694197 L258.018,-27.214901 L258.4985,-49.64134 L258.97897,-213.85071 L259.45947,-4.7329435 L259.93994,-25.938381 L260.4204,-52.99035 L260.9009,-210.26302 L261.38138,-5.1472406 L261.86185,-25.061903 L262.34235,-55.62188 L262.8228,-206.13243 L263.3033,-5.51111 L263.78378,-24.578451 L264.26425,-57.425877 L264.74475,-201.31195 L265.22522,-5.832912 L265.70572,-24.48656 L266.1862,-58.32732 L266.66666,-195.558 L267.14716,-6.1238203 L267.62762,-24.780453 L268.1081,-58.29322 L268.5886,-188.49623 L269.06906,-6.3974586 L269.54956,-25.430513 L270.03003,-57.35269 L270.5105,-179.59854 L270.991,-6.6780105 L271.47147,-26.345278 L271.95197,-55.61702 L272.43243,-168.20078 L272.9129,-7.0157323 L273.3934,-27.305237 L273.87387,-53.27149 L274.35434,-153.59094 L274.83484,-7.5027504 L275.3153,-27.876093 L275.7958,-50.505623 L276.27628,-135.17809 L276.75674,-8.270541 L277.23724,-27.369665 L277.7177,-47.340527 L278.1982,-112.75505 L278.67868,-9.42049 L279.15915,-25.009405 L279.63965,-43.301918 L280.12012,-86.952805 L280.6006,-10.746951 L281.0811,-20.410042 L281.56155,-37.088108 L282.04205,-59.9679 L282.52252,-11.155769 L283.003,-14.218914 L283.4835,-27.367523 L283.96396,-36.309704 L284.44446,-9.043048 L284.92493,-8.65016 L285.4054,-16.369415 L285.8859,-21.53908 L286.36636,-5.674134 L286.84683,-5.9228325 L287.32733,-9.807386 L287.8078,-15.58831 L288.2883,-3.8562062 L288.76877,-5.087158 L289.24924,-7.2642894 L289.72974,-13.003077 L290.2102,-3.0826957 L290.6907,-4.6178575 L291.17117,-5.9679847 L291.65164,-11.316509 L292.13214,-2.6398988 L292.6126,-4.2364635 L293.09308,-5.120676 L293.57358,-10.048684 L294.05405,-2.3359516 L294.53455,-3.9104242 L295.015,-4.5030675 L295.49548,-9.041973 L295.97598,-2.1063907 L296.45645,-3.6275122 L296.93695,-4.024486 L297.41742,-8.217241 L297.8979,-1.9227844 L298.3784,-3.3796782 L298.85886,-3.638873 L299.33932,-7.5269456 L299.81982,-1.7703617 L300.3003,-3.1608167 L300.7808,-3.319603 L301.26126,-6.93969 L301.74173,-1.6405333 L302.22223,-2.9661362 L302.7027,-3.0498974 L303.1832,-6.433524 L303.66367,-1.527886 L304.14413,-2.7918153 L304.62463,-2.8184588 L305.1051,-5.9924808 L305.58557,-1.4287587 L306.06607,-2.634799 L306.54654,-2.617348 L307.02704,-5.604625 L307.5075,-1.3405718 L307.98798,-2.4926038 L308.46848,-2.4407568 L308.94894,-5.260796 L309.42944,-1.2614237 L309.9099,-2.363215 L310.39038,-2.28433 L310.87088,-4.953856 L311.35135,-1.1898706 L311.83182,-2.2449608 L312.31232,-2.144708 L312.7928,-4.67816 L313.2733,-1.1247816 L313.75375,-2.1364596 L314.23422,-2.0192575 L314.71472,-4.429148 L315.1952,-1.0652622 L315.6757,-2.0365465 L316.15616,-1.9059031 L316.63663,-4.2031336 L317.11713,-1.0105854 L317.5976,-1.9442312 L318.07806,-1.8029319 L318.55856,-3.9970684 L319.03903,-0.9601559 L319.51953,-1.8586802 L320,-1.7089726 L320.48047,-3.8084273 L320.96097,-0.91347706 L321.44144,-1.7791795 L321.92194,-1.6228844 L322.4024,-3.6351023 L322.88287,-0.870125 L323.36337,-1.7051194 L323.84384,-1.5436926 L324.3243,-3.4753044 L324.8048,-0.82975775 L325.28528,-1.6359482 L325.76578,-1.4706186 L326.24625,-3.3275163 L326.7267,-0.7920626 L327.2072,-1.5712047 L327.68768,-1.402969 L328.16818,-3.19045 L328.64865,-0.7567737 L329.12912,-1.510488 L329.60962,-1.3401506 L330.0901,-3.062982 L330.57056,-0.72367305 L331.05106,-1.4534211 L331.53152,-1.2816781 L332.01202,-2.944153 L332.4925,-0.6925572 L332.97296,-1.3997067 L333.45346,-1.2271112 L333.93393,-2.8331146 L334.41443,-0.66325396 L334.8949,-1.3490496 L335.37537,-1.1760674 L335.85587,-2.729135 L336.33633,-0.63560206 L336.8168,-1.3012046 L337.2973,-1.1282246 L337.77777,-2.6315706 L338.25827,-0.6094771 L338.73874,-1.2559446 L339.2192,-1.0832908 L339.6997,-2.5398502 L340.18018,-0.58474517 L340.66068,-1.2130657 L341.14114,-1.0410086 L341.6216,-2.45347 L342.1021,-0.56130195 L342.58258,-1.1723956 L343.06305,-1.0011526 L343.54355,-2.3719823 L344.02402,-0.53905237 L344.50452,-1.1337672 L344.985,-0.9635274 L345.46545,-2.2949922 L345.94595,-0.5179048 L346.42642,-1.0970327 L346.90692,-0.92794263 L347.3874,-2.22214 L347.86786,-0.49778202 L348.34836,-1.0620583 L348.82883,-0.89424014 L349.3093,-2.1531053 L349.7898,-0.47861168 L350.27026,-1.0287246 L350.75076,-0.8622908 L351.23123,-2.0876017 L351.7117,-0.46032694 L352.1922,-0.9969167 L352.67267,-0.8319436 L353.15317,-2.025365 L353.63364,-0.44286874 L354.1141,-0.9665405 L354.5946,-0.8030945 L355.07507,-1.9661628 L355.55554,-0.42618448 L356.03604,-0.9375005 L356.5165,-0.7756372 L356.997,-1.9097849 L357.47748,-0.4102251 L357.95795,-0.9097152 L358.43845,-0.7494658 L358.9189,-1.8560343 L359.3994,-0.39494547 L359.87988,-0.8831013 L360.36035,-0.724504 L360.84085,-1.8047371 L361.32132,-0.3803022 L361.8018,-0.8575959 L362.2823,-0.7006651 L362.76276,-1.7557273 L363.24326,-0.3662569 L363.72372,-0.8331218 L364.2042,-0.6778817 L364.6847,-1.7088634 L365.16516,-0.35277396 L365.64566,-0.80962586 L366.12613,-0.6560762 L366.6066,-1.6640071 L367.0871,-0.33982378 L367.56757,-0.7870524 L368.04803,-0.63520205 L368.52853,-1.6210332 L369.009,-0.3273741 L369.4895,-0.7653501 L369.96997,-0.6151911 L370.45044,-1.5798296 L370.93094,-0.31539592 L371.4114,-0.7444647 L371.8919,-0.5959948 L372.37238,-1.5402931 L372.85284,-0.30386505 L373.33334,-0.72436225 L373.8138,-0.57757056 L374.29428,-1.5023241 L374.77478,-0.29275963 L375.25525,-0.70498973 L375.73575,-0.55986506 L376.21622,-1.4658314 L376.6967,-0.28205135 L377.1772,-0.6863157 L377.65765,-0.5428453 L378.13815,-1.4307357 L378.61862,-0.2717258 L379.0991,-0.6683058 L379.5796,-0.52646947 L380.06006,-1.39696 L380.54053,-0.26175988 L381.02103,-0.6509177 L381.5015,-0.510701 L381.982,-1.3644292 L382.46246,-0.25213593 L382.94293,-0.63413 L383.42343,-0.4955107 L383.9039,-1.3330796 L384.3844,-0.24283914 L384.86487,-0.6179051 L385.34534,-0.48087052 L385.82584,-1.3028485 L386.3063,-0.23385136 L386.78677,-0.60222316 L387.26727,-0.46674532 L387.74774,-1.2736795 L388.22824,-0.22515681 L388.7087,-0.58704835 L389.18918,-0.45311466 L389.66968,-1.2455173 L390.15015,-0.21674368 L390.63065,-0.5723689 L391.1111,-0.43994758 L391.59158,-1.2183112 L392.07208,-0.20859972 L392.55255,-0.5581548 L393.03302,-0.42722696 L393.51352,-1.1920152 L393.994,-0.20071116 L394.4745,-0.54438496 L394.95496,-0.4149309 L395.43542,-1.1665872 L395.91592,-0.19306515 L396.3964,-0.5310391 L396.8769,-0.40303433 L397.35736,-1.1419839 L397.83783,-0.18565364 L398.31833,-0.5181014 L398.7988,-0.39152214 L399.27927,-1.1181666 L399.75977,-0.17846456 L400.24023,-0.50555253 L400.72073,-0.38038155 L401.2012,-1.0950998 L401.68167,-0.17148916 L402.16217,-0.49337393 L402.64264,-0.36958036 L403.1231,-1.0727489 L403.6036,-0.16471766 L404.08408,-0.48155305 L404.56458,-0.35911757 L405.04504,-1.0510832 L405.5255,-0.15814176 L406.006,-0.4700683 L406.48648,-0.34897462 L406.96698,-1.0300694 L407.44745,-0.15175529 L407.92792,-0.4589158 L408.40842,-0.3391352 L408.8889,-1.0096798 L409.36935,-0.14554636 L409.84985,-0.4480746 L410.33032,-0.32958683 L410.81082,-0.98988974 L411.2913,-0.1395121 L411.77176,-0.4375378 L412.25226,-0.3203176 L412.73273,-0.9706741 L413.21323,-0.1336427 L413.6937,-0.42728516 L414.17416,-0.31131232 L414.65466,-0.9520063 L415.13513,-0.12793063 L415.6156,-0.4173122 L416.0961,-0.30256823 L416.57657,-0.9338652 L417.05707,-0.12237377 L417.53754,-0.40760514 L418.018,-0.294069 L418.4985,-0.91622865 L418.97897,-0.11696452 L419.45947,-0.3981542 L419.93994,-0.28580558 L420.4204,-0.8990776 L420.9009,-0.11169437 L421.38138,-0.38894993 L421.86185,-0.27776578 L422.34235,-0.8823904 L422.8228,-0.10656154 L423.3033,-0.3799849 L423.78378,-0.26994762 L424.26425,-0.8661526 L424.74475,-0.10155913 L425.22522,-0.37124822 L425.70572,-0.26233605 L426.1862,-0.8503422 L426.66666,-0.09668402 L427.14716,-0.3627293 L427.62762,-0.25492612 L428.1081,-0.83494705 L428.5886,-0.09193059 L429.06906,-0.35442665 L429.54956,-0.24771152 L430.03003,-0.8199471 L430.5105,-0.08729375 L430.991,-0.34632653 L431.47147,-0.24067792 L431.95197,-0.8053313 L432.43243,-0.082770385 L432.9129,-0.33842242 L433.3934,-0.23382586 L433.87387,-0.7910837 L434.35434,-0.07835511 L434.83484,-0.3307116 L435.3153,-0.22715089 L435.7958,-0.77719235 L436.27628,-0.074045956 L436.75674,-0.32318252 L437.23724,-0.22063623 L437.7177,-0.7636413 L438.1982,-0.069838814 L438.67868,-0.31583095 L439.15915,-0.21428585 L439.63965,-0.75042367 L440.12012,-0.065730706 L440.6006,-0.30864936 L441.0811,-0.2080895 L441.56155,-0.73752266 L442.04205,-0.06171627 L442.52252,-0.30163366 L443.003,-0.20204191 L443.4835,-0.7249293 L443.96396,-0.057794947 L444.44446,-0.2947815 L444.92493,-0.1961379 L445.4054,-0.71263266 L445.8859,-0.053961582 L446.36636,-0.28808242 L446.84683,-0.1903724 L447.32733,-0.7006223 L447.8078,-0.050214514 L448.2883,-0.28153428 L448.76877,-0.18474351 L449.24924,-0.6888892 L449.72974,-0.046550825 L450.2102,-0.27513012 L450.6907,-0.17924175 L451.17117,-0.67742425 L451.65164,-0.042967718 L452.13214,-0.26886648 L452.6126,-0.17386991 L453.09308,-0.6662182 L453.57358,-0.039462887 L454.05405,-0.26273817 L454.53455,-0.16861586 L455.015,-0.65526277 L455.49548,-0.036033317 L455.97598,-0.25674352 L456.45645,-0.16348095 L456.93695,-0.6445505 L457.41742,-0.032675844 L457.8979,-0.2508759 L458.3784,-0.15846066 L458.85886,-0.6340725 L459.33932,-0.029390499 L459.81982,-0.24513055 L460.3003,-0.15354623 L460.7808,-0.6238205 L461.26126,-0.026173368 L461.74173,-0.23950598 L462.22223,-0.14874496 L462.7027,-0.61378855 L463.1832,-0.023023797 L463.66367,-0.23399745 L464.14413,-0.14404386 L464.62463,-0.6039699 L465.1051,-0.019938204 L465.58557,-0.2286051 L466.06607,-0.13944311 L466.54654,-0.5943596 L467.02704,-0.016915446 L467.5075,-0.22331661 L467.98798,-0.1349386 L468.46848,-0.5849481 L468.94894,-0.0139544 L469.42944,-0.21813847 L469.9099,-0.13052768 L470.39038,-0.57573146 L470.87088,-0.011052759 L471.35135,-0.21306163 L471.83182,-0.12621067 L472.31232,-0.5667017 L472.7928,-0.008206308 L473.2733,-0.2080864 L473.75375,-0.12198214 L474.23422,-0.55785596 L474.71472,-0.005417122 L475.1952,-0.20320857 L475.6757,-0.117838286 L476.15616,-0.5491878 L476.63663,-0.0026819615 L477.11713,-0.1984239 L477.5976,-0.11377388 L478.07806,-0.54069215 L478.55856,-0 L479.03903,-0.19373289 L479.51953,-0.10979636 L480,-0.532363" fill="none" stroke="#35C788" stroke-linejoin="round" stroke-width="2"/>
</g>
</g>
<g>
<g>
<line stroke="black" stroke-width="1" x1="0" x2="0" y1="0" y2="10"/>
<line stroke="black" stroke-width="1" x1="96.09609609609609" x2="96.09609609609609" y1="0" y2="10"/>
<line stroke="black" stroke-width="1" x1="192.19219219219218" x2="192.19219219219218" y1="0" y2="10"/>
<line stroke="black" stroke-width="1" x1="288.2882882882883" x2="288.2882882882883" y1="0" y2="10"/>
<line stroke="black" stroke-width="1" x1="384.38438438438436" x2="384.38438438438436" y1="0" y2="10"/>
</g>
<line stroke="black" stroke-width="1" x1="0" x2="480" y1="0" y2="0"/>
<g>
<text font-size="12" text-anchor="middle" x="0" y="20">
0
</text>
<text font-size="12" text-anchor="middle" x="96.09609609609609" y="20">
200
</text>
<text font-size="12" text-anchor="middle" x="192.19219219219218" y="20">
400
</text>
<text font-size="12" text-anchor="middle" x="288.2882882882883" y="20">
600
</text>
<text font-size="12" text-anchor="middle" x="384.38438438438436" y="20">
800
</text>
</g>
<text font-size="12" text-anchor="middle" x="240" y="30">
Epochs
</text>
</g>
<g>
<g>
<line stroke="black" stroke-width="1" x1="0" x2="-10" y1="-0.0003564772857365967" y2="-0.0003564772857365967"/>
<line stroke="black" stroke-width="1" x1="0" x2="-10" y1="-72.76743256344349" y2="-72.76743256344349"/>
<line stroke="black" stroke-width="1" x1="0" x2="-10" y1="-145.53450864960124" y2="-145.53450864960124"/>
<line stroke="black" stroke-width="1" x1="0" x2="-10" y1="-218.301584735759" y2="-218.301584735759"/>
<line stroke="black" stroke-width="1" x1="0" x2="-10" y1="-291.06866082191675" y2="-291.06866082191675"/>
</g>
<line stroke="black" stroke-width="1" x1="0" x2="0" y1="0" y2="-340"/>
<g>
<text dominant-baseline="middle" font-size="12" text-anchor="end" x="-15" y="-0.0003564772857365967">
0.0007
</text>
<text dominant-baseline="middle" font-size="12" text-anchor="end" x="-15" y="-72.76743256344349">
0.2007
</text>
<text dominant-baseline="middle" font-size="12" text-anchor="end" x="-15" y="-145.53450864960124">
0.4007
</text>
<text dominant-baseline="middle" font-size="12" text-anchor="end" x="-15" y="-218.301584735759">
0.6007
</text>
<text dominant-baseline="middle" font-size="12" text-anchor="end" x="-15" y="-291.06866082191675">
0.8007
</text>
</g>
<text font-size="12" text-anchor="middle" transform="rotate(-90 -72 -170)" x="-72" y="-182">
Loss
</text>
</g>
</g>
</svg>