<svg viewBox="0 0 600 400" xmlns="http://www.w3.org/2000/svg">
<g transform="translate(72, 364)">
<g>
<g>
<path d="M0,-263.2694 L0,-263.2694 L0.4804805,-145.02817 L0.960961,-0.25345874 L1.4414414,-340 L1.921922,-292.80707 L2.4024024,-37.754562 L2.8828828,-2.2945065 L3.3633633,-320.07886 L3.843844,-197.86826 L4.324324,-254.93672 L4.804805,-37.622746 L5.2852855,-310.74335 L5.7657657,-164.75464 L6.2462463,-259.99326 L6.7267265,-71.664925 L7.207207,-315.2673 L7.687688,-196.80843 L8.168168,-192.49341 L8.648648,-18.40592 L9.129129,-292.29782 L9.60961,-123.241844 L10.09009,-237.42975 L10.570571,-77.1034 L11.051051,-294.41473 L11.531531,-148.93225 L12.0120125,-205.92886 L12.492493,-50.44269 L12.972973,-279.0464 L13.453453,-122.47547 L13.933934,-211.84416 L14.414414,-67.375694 L14.894895,-267.3552 L15.375376,-115.486244 L15.855856,-207.8026 L16.336336,-70.59914 L16.816816,-253.61401 L17.297297,-106.53927 L17.777779,-206.4831 L18.258259,-74.48109 L18.738739,-242.82254 L19.21922,-100.31684 L19.6997,-205.21074 L20.18018,-76.18806 L20.66066,-236.37251 L21.141142,-96.27889 L21.621622,-203.84839 L22.102102,-76.47885 L22.582582,-232.8117 L23.063063,-93.511314 L23.543543,-202.41394 L24.024025,-76.03215 L24.504505,-230.85342 L24.984985,-91.43888 L25.465466,-200.90085 L25.945946,-75.17472 L26.426426,-229.84198 L26.906906,-89.75517 L27.387388,-199.28009 L27.867868,-74.04329 L28.348349,-229.45181 L28.828829,-88.28407 L29.309309,-197.51541 L29.78979,-72.69303 L30.27027,-229.51164 L30.750751,-86.90975 L31.231232,-195.5651 L31.711712,-71.14115 L32.192192,-229.92859 L32.672672,-85.54462 L33.153152,-193.37909 L33.633633,-69.38421 L34.114113,-230.65416 L34.594593,-84.11258 L35.075073,-190.89435 L35.555557,-67.40445 L36.036037,-231.66878 L36.516518,-82.53934 L36.996998,-188.0287 L37.477478,-65.17323 L37.95796,-232.97363 L38.43844,-80.744965 L38.91892,-184.67337 L39.3994,-62.6527 L39.87988,-234.58694 L40.36036,-78.638626 L40.84084,-180.68283 L41.32132,-59.79851 L41.801804,-236.54176 L42.282284,-76.11549 L42.762764,-175.86278 L43.243244,-56.565727 L43.723724,-238.88358 L44.204205,-73.05704 L44.684685,-169.9567 L45.165165,-52.920918 L45.645645,-241.66626 L46.126125,-69.33996 L46.606606,-162.63821 L47.087086,-48.86502 L47.567566,-244.94197 L48.04805,-64.8569 L48.52853,-153.52483 L49.00901,-44.470497 L49.48949,-248.74011 L49.96997,-59.5526 L50.45045,-142.24866 L50.93093,-39.924877 L51.41141,-253.02621 L51.89189,-53.465553 L52.37237,-128.63403 L52.85285,-35.547974 L53.333332,-257.638 L53.813812,-46.75438 L54.294292,-112.99818 L54.774776,-31.722626 L55.255257,-262.226 L55.735737,-39.698856 L56.216217,-96.43414 L56.696697,-28.715864 L57.177177,-266.28815 L57.657658,-32.70667 L58.138138,-80.72084 L58.618618,-26.507225 L59.0991,-269.3678 L59.57958,-26.295732 L60.06006,-67.60871 L60.54054,-24.835669 L61.021023,-271.28812 L61.501503,-20.922644 L61.981983,-57.93086 L62.462463,-23.455046 L62.942944,-272.18457 L63.423424,-16.753937 L63.903904,-51.42202 L64.384384,-22.276812 L64.86487,-272.33752 L65.345345,-13.6598215 L65.82583,-47.280964 L66.306305,-21.293934 L66.78679,-272.01306 L67.267265,-11.389105 L67.74775,-44.723362 L68.228226,-20.495552 L68.70871,-271.40768 L69.189186,-9.706584 L69.66967,-43.178066 L70.15015,-19.853971 L70.63063,-270.65244 L71.111115,-8.435738 L71.59159,-42.27242 L72.072075,-19.336527 L72.55255,-269.83047 L73.033035,-7.4541903 L73.51351,-41.771206 L73.993996,-18.914005 L74.47447,-268.99258 L74.954956,-6.678887 L75.43543,-41.5267 L75.91592,-18.563185 L76.39639,-268.1686 L76.87688,-6.053364 L77.35736,-41.445415 L77.83784,-18.26653 L78.31832,-267.3749 L78.7988,-5.538751 L79.27928,-41.467957 L79.75976,-18.011152 L80.24024,-266.61932 L80.72072,-5.107895 L81.2012,-41.556263 L81.68168,-17.787657 L82.16216,-265.90482 L82.64264,-4.741506 L83.12312,-41.685898 L83.60361,-17.589119 L84.08408,-265.23123 L84.56457,-4.425648 L85.045044,-41.84111 L85.52553,-17.410461 L86.006004,-264.59674 L86.48649,-4.1500735 L86.966965,-42.011772 L87.44745,-17.247885 L87.927925,-263.99893 L88.40841,-3.9071383 L88.888885,-42.191338 L89.36937,-17.098457 L89.84985,-263.4347 L90.33033,-3.691025 L90.810814,-42.37572 L91.29129,-16.96 L91.771774,-262.901 L92.25225,-3.4972618 L92.732735,-42.562283 L93.21321,-16.830776 L93.693695,-262.39514 L94.17417,-3.3223586 L94.654655,-42.749367 L95.13513,-16.709393 L95.615616,-261.91437 L96.0961,-3.163533 L96.57658,-42.936043 L97.05706,-16.594736 L97.53754,-261.45605 L98.01802,-3.0185525 L98.4985,-43.12178 L98.97898,-16.48592 L99.45946,-261.01804 L99.93994,-2.885603 L100.42042,-43.30633 L100.9009,-16.382195 L101.38138,-260.59824 L101.86186,-2.763191 L102.34234,-43.489597 L102.82282,-16.28292 L103.30331,-260.19482 L103.78378,-2.650068 L104.26427,-43.671627 L104.74474,-16.187561 L105.22523,-259.8061 L105.7057,-2.5451908 L106.18619,-43.85256 L106.666664,-16.095686 L107.14715,-259.43054 L107.627625,-2.4476767 L108.10811,-44.03253 L108.588585,-16.00687 L109.06907,-259.0668 L109.54955,-2.35677 L110.03003,-44.211758 L110.51051,-15.920795 L110.99099,-258.71368 L111.47147,-2.271818 L111.95195,-44.390438 L112.432434,-15.837129 L112.91291,-258.36996 L113.393394,-2.1922538 L113.87387,-44.56881 L114.354355,-15.755619 L114.83483,-258.03476 L115.315315,-2.117591 L115.7958,-44.747017 L116.276276,-15.676017 L116.75676,-257.70694 L117.237236,-2.047399 L117.71772,-44.92541 L118.1982,-15.598127 L118.67868,-257.3858 L119.15916,-1.9813004 L119.63964,-45.10414 L120.12012,-15.521708 L120.6006,-257.07053 L121.08108,-1.9189569 L121.56156,-45.283424 L122.042046,-15.44661 L122.52252,-256.76022 L123.003006,-1.860075 L123.48348,-45.463535 L123.96397,-15.37267 L124.44444,-256.4544 L124.92493,-1.8043919 L125.4054,-45.644653 L125.88589,-15.299707 L126.36636,-256.1522 L126.84685,-1.7516658 L127.327324,-45.827045 L127.80781,-15.227593 L128.28828,-255.8531 L128.76877,-1.7016844 L129.24925,-46.010906 L129.72974,-15.156208 L130.2102,-255.55652 L130.69069,-1.6542621 L131.17117,-46.19649 L131.65166,-15.085394 L132.13213,-255.26187 L132.61261,-1.6092218 L133.0931,-46.383995 L133.57358,-15.015054 L134.05405,-254.96852 L134.53453,-1.5664126 L135.01501,-46.573677 L135.4955,-14.945068 L135.97598,-254.67604 L136.45645,-1.5256894 L136.93694,-46.765778 L137.41742,-14.875341 L137.8979,-254.3839 L138.37837,-1.4869338 L138.85886,-46.960495 L139.33934,-14.805747 L139.81982,-254.0915 L140.3003,-1.4500276 L140.78078,-47.158157 L141.26126,-14.736208 L141.74174,-253.79846 L142.22223,-1.4148605 L142.7027,-47.358936 L143.18318,-14.666612 L143.66367,-253.50417 L144.14415,-1.3813426 L144.62462,-47.56311 L145.1051,-14.596896 L145.58559,-253.20822 L146.06607,-1.3493912 L146.54654,-47.77093 L147.02702,-14.52697 L147.5075,-252.91002 L147.98799,-1.3189266 L148.46848,-47.9827 L148.94894,-14.456731 L149.42943,-252.60909 L149.90991,-1.2898779 L150.3904,-48.198647 L150.87086,-14.386129 L151.35135,-252.30484 L151.83183,-1.2621812 L152.31232,-48.41912 L152.79279,-14.3150835 L153.27327,-251.99687 L153.75375,-1.2357843 L154.23424,-48.64432 L154.71472,-14.243521 L155.19519,-251.68454 L155.67567,-1.2106341 L156.15616,-48.87458 L156.63664,-14.1713915 L157.11711,-251.36731 L157.5976,-1.1866889 L158.07808,-49.110184 L158.55856,-14.098611 L159.03903,-251.04453 L159.51952,-1.1639084 L160,-49.351494 L160.48048,-14.025174 L160.96097,-250.7156 L161.44144,-1.1422589 L161.92192,-49.59876 L162.4024,-13.951012 L162.88289,-250.37994 L163.36336,-1.1217146 L163.84384,-49.852283 L164.32433,-13.876114 L164.80481,-250.03682 L165.28528,-1.1022507 L165.76576,-50.112415 L166.24625,-13.800427 L166.72673,-249.68549 L167.20721,-1.0838512 L167.68768,-50.37945 L168.16817,-13.723996 L168.64865,-249.32516 L169.12914,-1.0665045 L169.6096,-50.65368 L170.09009,-13.646775 L170.57057,-248.95517 L171.05106,-1.0502079 L171.53152,-50.935413 L172.01201,-13.568815 L172.4925,-248.57446 L172.97298,-1.0349584 L173.45346,-51.224903 L173.93393,-13.490184 L174.41441,-248.18219 L174.8949,-1.0207647 L175.37538,-51.522457 L175.85585,-13.410922 L176.33633,-247.77725 L176.81682,-1.00764 L177.2973,-51.82825 L177.77777,-13.331189 L178.25826,-247.3586 L178.73874,-0.99560565 L179.21922,-52.142475 L179.6997,-13.251087 L180.18018,-246.925 L180.66066,-0.98469245 L181.14114,-52.46534 L181.62163,-13.170808 L182.1021,-246.47517 L182.58258,-0.97494096 L183.06306,-52.79677 L183.54355,-13.0906515 L184.02402,-246.00769 L184.5045,-0.9664042 L184.98499,-53.136776 L185.46547,-13.010874 L185.94595,-245.52089 L186.42642,-0.9591445 L186.9069,-53.48516 L187.38739,-12.931904 L187.86787,-245.0129 L188.34834,-0.95324105 L188.82883,-53.841587 L189.30931,-12.854268 L189.7898,-244.48192 L190.27026,-0.9487912 L190.75075,-54.20546 L191.23123,-12.778555 L191.71172,-243.9256 L192.1922,-0.9459157 L192.67267,-54.575886 L193.15315,-12.70559 L193.63364,-243.3414 L194.11412,-0.9447581 L194.59459,-54.95164 L195.07507,-12.636335 L195.55556,-242.72653 L196.03604,-0.9454933 L196.51651,-55.330883 L196.997,-12.572039 L197.47748,-242.07767 L197.95796,-0.94833916 L198.43845,-55.71119 L198.91891,-12.514283 L199.3994,-241.39105 L199.87988,-0.9535574 L200.36037,-56.089176 L200.84084,-12.465054 L201.32132,-240.66252 L201.8018,-0.9614728 L202.28229,-56.46026 L202.76276,-12.42686 L203.24324,-239.88696 L203.72372,-0.97248536 L204.20421,-56.818256 L204.68468,-12.403007 L205.16516,-239.05879 L205.64565,-0.9870944 L206.12613,-57.154694 L206.60661,-12.397758 L207.08708,-238.17143 L207.56757,-1.0059255 L208.04805,-57.45832 L208.52853,-12.416709 L209.009,-237.21742 L209.48949,-1.0297737 L209.96997,-57.7137 L210.45045,-12.467373 L210.93092,-236.18825 L211.4114,-1.0596471 L211.89189,-57.900143 L212.37238,-12.559939 L212.85286,-235.07458 L213.33333,-1.096855 L213.81381,-57.989693 L214.2943,-12.708347 L214.77478,-233.86632 L215.25525,-1.1430836 L215.73573,-57.945194 L216.21622,-12.932059 L216.6967,-232.55307 L217.17717,-1.2005581 L217.65765,-57.718098 L218.13814,-13.258501 L218.61862,-231.1251 L219.0991,-1.272224 L219.57957,-57.2465 L220.06006,-13.7268 L220.54054,-229.57396 L221.02103,-1.3620065 L221.5015,-56.45598 L221.98198,-14.392806 L222.46246,-227.89365 L222.94295,-1.475265 L223.42342,-55.26416 L223.9039,-15.335501 L224.38438,-226.0794 L224.86487,-1.6194032 L225.34535,-53.593243 L225.82582,-16.663286 L226.3063,-224.12375 L226.78679,-1.8048952 L227.26727,-51.39155 L227.74774,-18.515715 L228.22823,-222.00807 L228.70871,-2.0465999 L229.1892,-48.661804 L229.66966,-21.050236 L230.15015,-219.68909 L230.63063,-2.3644588 L231.11111,-45.490265 L231.5916,-24.399868 L232.07207,-217.08394 L232.55255,-2.780676 L233.03304,-42.06465 L233.51352,-28.590906 L233.99399,-214.04941 L234.47447,-3.308131 L234.95496,-38.662003 L235.43544,-33.44321 L235.91591,-210.36082 L236.3964,-3.9288366 L236.87688,-35.582664 L237.35736,-38.527283 L237.83784,-205.70627 L238.31831,-4.5780797 L238.7988,-33.04982 L239.27928,-43.250027 L239.75977,-199.69183 L240.24023,-5.164459 L240.72072,-31.1615 L241.2012,-47.026783 L241.68169,-191.8128 L242.16216,-5.6253552 L242.64264,-29.928385 L243.12312,-49.419178 L243.6036,-181.37393 L244.08409,-5.9717517 L244.56456,-29.297152 L245.04504,-50.19532 L245.52553,-167.44077 L246.00601,-6.299793 L246.48648,-29.075651 L246.96696,-49.30663 L247.44745,-148.98993 L247.92793,-6.7903414 L248.4084,-28.803188 L248.88889,-46.756706 L249.36937,-125.46679 L249.84985,-7.6872883 L250.33034,-27.724987 L250.8108,-42.49223 L251.29129,-97.968056 L251.77177,-9.097649 L252.25226,-25.105629 L252.73273,-36.65858 L253.21321,-70.631134 L253.6937,-10.28937 L254.17418,-20.812769 L254.65465,-30.055637 L255.13513,-49.053585 L255.61562,-9.798528 L256.0961,-15.968746 L256.57657,-23.693838 L257.05707,-35.203876 L257.53754,-8.107714 L258.018,-12.452625 L258.4985,-18.580013 L258.97897,-27.269142 L259.45947,-6.629224 L259.93994,-10.407945 L260.4204,-15.198622 L260.9009,-22.623123 L261.38138,-5.6407604 L261.86185,-9.105466 L262.34235,-12.97703 L262.8228,-19.535528 L263.3033,-4.9511027 L263.78378,-8.145114 L264.26425,-11.383933 L264.74475,-17.26785 L265.22522,-4.4236703 L265.70572,-7.3800483 L266.1862,-10.159836 L266.66666,-15.5038595 L267.14716,-3.9964254 L267.62762,-6.7466564 L268.1081,-9.177887 L268.5886,-14.080963 L269.06906,-3.6387582 L269.54956,-6.2098184 L270.03003,-8.367433 L270.5105,-12.903245 L270.991,-3.3330982 L271.47147,-5.747172 L271.95197,-7.6846814 L272.43243,-11.909175 L272.9129,-3.068076 L273.3934,-5.3434105 L273.87387,-7.1004286 L274.35434,-11.05699 L274.83484,-2.835842 L275.3153,-4.987457 L275.7958,-6.5941277 L276.27628,-10.3170805 L276.75674,-2.6305785 L277.23724,-4.67104 L277.7177,-6.1508603 L278.1982,-9.667837 L278.67868,-2.4478786 L279.15915,-4.3877816 L279.63965,-5.7593036 L280.12012,-9.092987 L280.6006,-2.2842815 L281.0811,-4.132672 L281.56155,-5.4108815 L282.04205,-8.580079 L282.52252,-2.1370456 L283.003,-3.9017143 L283.4835,-5.0987506 L283.96396,-8.119339 L284.44446,-2.0038927 L284.92493,-3.6916423 L285.4054,-4.8175483 L285.8859,-7.7030234 L286.36636,-1.8830014 L286.84683,-3.4997952 L287.32733,-4.5628743 L287.8078,-7.3248777 L288.2883,-1.7728279 L288.76877,-3.3239233 L289.24924,-4.3312035 L289.72974,-6.979793 L290.2102,-1.6720816 L290.6907,-3.1621435 L291.17117,-4.1195493 L291.65164,-6.6635528 L292.13214,-1.579657 L292.6126,-3.0128891 L293.09308,-3.9254591 L293.57358,-6.3726544 L294.05405,-1.4946377 L294.53455,-2.8747833 L295.015,-3.7468843 L295.49548,-6.1041455 L295.97598,-1.4162036 L296.45645,-2.746663 L296.93695,-3.5820105 L297.41742,-5.855522 L297.8979,-1.3436645 L298.3784,-2.6275222 L298.85886,-3.4293811 L299.33932,-5.6246443 L299.81982,-1.2764279 L300.3003,-2.516469 L300.7808,-3.2877014 L301.26126,-5.4096723 L301.74173,-1.2139571 L302.22223,-2.4127429 L302.7027,-3.1558523 L303.1832,-5.2090254 L303.66367,-1.1558025 L304.14413,-2.3156695 L304.62463,-3.0328572 L305.1051,-5.0213184 L305.58557,-1.1015514 L306.06607,-2.2246544 L306.54654,-2.9178667 L307.02704,-4.8453445 L307.5075,-1.0508482 L307.98798,-2.139167 L308.46848,-2.8101501 L308.94894,-4.6800427 L309.42944,-1.0033771 L309.9099,-2.058729 L310.39038,-2.7090604 L310.87088,-4.524476 L311.35135,-0.9588566 L311.83182,-1.9829392 L312.31232,-2.6140172 L312.7928,-4.37783 L313.2733,-0.9170361 L313.75375,-1.9114133 L314.23422,-2.5244856 L314.71472,-4.239356 L315.1952,-0.8776878 L315.6757,-1.8438164 L316.15616,-2.4400184 L316.63663,-4.108396 L317.11713,-0.8406146 L317.5976,-1.7798476 L318.07806,-2.360226 L318.55856,-3.9843714 L319.03903,-0.80563164 L319.51953,-1.7192314 L320,-2.2847276 L320.48047,-3.866745 L320.96097,-0.7725853 L321.44144,-1.6617312 L321.92194,-2.2131798 L322.4024,-3.7550473 L322.88287,-0.74132115 L323.36337,-1.6071064 L323.84384,-2.145312 L324.3243,-3.6488402 L324.8048,-0.7117063 L325.28528,-1.5551713 L325.76578,-2.0808396 L326.24625,-3.547742 L326.7267,-0.68362147 L327.2072,-1.505736 L327.68768,-2.0195248 L328.16818,-3.4514017 L328.64865,-0.6569622 L329.12912,-1.4586259 L329.60962,-1.9611515 L330.0901,-3.359488 L330.57056,-0.63162005 L331.05106,-1.413692 L331.53152,-1.9055126 L332.01202,-3.2717178 L332.4925,-0.6075115 L332.97296,-1.3707947 L333.45346,-1.8524239 L333.93393,-3.1878211 L334.41443,-0.5845521 L334.8949,-1.3297943 L335.37537,-1.8017187 L335.85587,-3.1075442 L336.33633,-0.5626591 L336.8168,-1.2905886 L337.2973,-1.7532504 L337.77777,-3.0306697 L338.25827,-0.54177356 L338.73874,-1.2530574 L339.2192,-1.7068713 L339.6997,-2.956988 L340.18018,-0.52182305 L340.66068,-1.2171069 L341.14114,-1.6624563 L341.6216,-2.8863106 L342.1021,-0.50275385 L342.58258,-1.1826315 L343.06305,-1.6198786 L343.54355,-2.8184586 L344.02402,-0.48450816 L344.50452,-1.1495537 L344.985,-1.5790411 L345.46545,-2.753269 L345.94595,-0.46703857 L346.42642,-1.1177931 L346.90692,-1.5398351 L347.3874,-2.6905994 L347.86786,-0.4502972 L348.34836,-1.0872761 L348.82883,-1.5021677 L349.3093,-2.6303012 L349.7898,-0.43424466 L350.27026,-1.0579334 L350.75076,-1.465956 L351.23123,-2.572247 L351.7117,-0.41883627 L352.1922,-1.0296992 L352.67267,-1.4311167 L353.15317,-2.5163178 L353.63364,-0.40404028 L354.1141,-1.0025171 L354.5946,-1.3975695 L355.07507,-2.4624007 L355.55554,-0.3898199 L356.03604,-0.9763303 L356.5165,-1.3652544 L356.997,-2.4103935 L357.47748,-0.37614182 L357.95795,-0.9510891 L358.43845,-1.3341017 L358.9189,-2.3601995 L359.3994,-0.36298323 L359.87988,-0.92674303 L360.36035,-1.304053 L360.84085,-2.311724 L361.32132,-0.35031042 L361.8018,-0.90324575 L362.2823,-1.2750571 L362.76276,-2.2648864 L363.24326,-0.33810177 L363.72372,-0.8805573 L364.2042,-1.247048 L364.6847,-2.2196047 L365.16516,-0.32632872 L365.64566,-0.858644 L366.12613,-1.2199919 L366.6066,-2.1758056 L367.0871,-0.3149731 L367.56757,-0.83745867 L368.04803,-1.1938314 L368.52853,-2.133419 L369.009,-0.30401403 L369.4895,-0.8169678 L369.96997,-1.1685306 L370.45044,-2.0923789 L370.93094,-0.2934303 L371.4114,-0.7971433 L371.8919,-1.1440455 L372.37238,-2.0526245 L372.85284,-0.28320548 L373.33334,-0.7779559 L373.8138,-1.1203343 L374.29428,-2.014096 L374.77478,-0.27331838 L375.25525,-0.75936997 L375.73575,-1.0973667 L376.21622,-1.9767406 L376.6967,-0.2637584 L377.1772,-0.74136966 L377.65765,-1.0751132 L378.13815,-1.9405065 L378.61862,-0.25450575 L379.0991,-0.72391665 L379.5796,-1.0535375 L380.06006,-1.9053457 L380.54053,-0.24554788 L381.02103,-0.7069985 L381.5015,-1.0326043 L381.982,-1.8712114 L382.46246,-0.2368735 L382.94293,-0.69057864 L383.42343,-1.0122949 L383.9039,-1.8380613 L384.3844,-0.22846715 L384.86487,-0.6746459 L385.34534,-0.9925776 L385.82584,-1.8058544 L386.3063,-0.22031747 L386.78677,-0.6591762 L387.26727,-0.97342753 L387.74774,-1.7745506 L388.22824,-0.21241459 L388.7087,-0.6441548 L389.18918,-0.954825 L389.66968,-1.7441155 L390.15015,-0.20474797 L390.63065,-0.62955457 L391.1111,-0.936746 L391.59158,-1.7145139 L392.07208,-0.1973038 L392.55255,-0.6153704 L393.03302,-0.91916466 L393.51352,-1.6857125 L393.994,-0.19007802 L394.4745,-0.6015739 L394.95496,-0.9020655 L395.43542,-1.6576805 L395.91592,-0.18305969 L396.3964,-0.5881545 L396.8769,-0.8854264 L397.35736,-1.6303861 L397.83783,-0.17623821 L398.31833,-0.5750995 L398.7988,-0.8692327 L399.27927,-1.6038038 L399.75977,-0.16960739 L400.24023,-0.5623948 L400.72073,-0.8534704 L401.2012,-1.577905 L401.68167,-0.16315867 L402.16217,-0.5500223 L402.64264,-0.8381112 L403.1231,-1.5526664 L403.6036,-0.15688585 L404.08408,-0.5379767 L404.56458,-0.823154 L405.04504,-1.528063 L405.5255,-0.1507817 L406.006,-0.52623856 L406.48648,-0.8085714 L406.96698,-1.50407 L407.44745,-0.14483978 L407.92792,-0.51479715 L408.40842,-0.7943555 L408.8889,-1.4806659 L409.36935,-0.13905405 L409.84985,-0.5036478 L410.33032,-0.7804964 L410.81082,-1.4578319 L411.2913,-0.13341928 L411.77176,-0.49277616 L412.25226,-0.7669751 L412.73273,-1.435546 L413.21323,-0.127927 L413.6937,-0.48217407 L414.17416,-0.7537844 L414.65466,-1.4137918 L415.13513,-0.12257569 L415.6156,-0.4718277 L416.0961,-0.74090827 L416.57657,-1.392547 L417.05707,-0.11735707 L417.53754,-0.4617313 L418.018,-0.72833556 L418.4985,-1.3717988 L418.97897,-0.11226931 L419.45947,-0.4518755 L419.93994,-0.71606207 L420.4204,-1.3515261 L420.9009,-0.10730605 L421.38138,-0.44225493 L421.86185,-0.7040702 L422.34235,-1.3317153 L422.8228,-0.10246085 L423.3033,-0.43285838 L423.78378,-0.6923564 L424.26425,-1.3123517 L424.74475,-0.09773262 L425.22522,-0.4236772 L425.70572,-0.68090564 L426.1862,-1.2934186 L426.66666,-0.09311721 L427.14716,-0.41470826 L427.62762,-0.669719 L428.1081,-1.274905 L428.5886,-0.088609695 L429.06906,-0.40594116 L429.54956,-0.6587732 L430.03003,-1.2567953 L430.5105,-0.084206685 L430.991,-0.39737496 L431.47147,-0.6480718 L431.95197,-1.2390777 L432.43243,-0.07990473 L432.9129,-0.38899222 L433.3934,-0.63760746 L433.87387,-1.2217388 L434.35434,-0.075701244 L434.83484,-0.38079593 L435.3153,-0.627364 L435.7958,-1.2047673 L436.27628,-0.07159045 L436.75674,-0.37277994 L437.23724,-0.6173452 L437.7177,-1.1881549 L438.1982,-0.06757232 L438.67868,-0.3649346 L439.15915,-0.60753345 L439.63965,-1.1718869 L440.12012,-0.063642405 L440.6006,-0.3572596 L441.0811,-0.5979283 L441.56155,-1.1559539 L442.04205,-0.05979872 L442.52252,-0.3497454 L443.003,-0.588523 L443.4835,-1.1403465 L443.96396,-0.056036983 L444.44446,-0.34238824 L444.92493,-0.579311 L445.4054,-1.1250535 L445.8859,-0.052355886 L446.36636,-0.3351844 L446.84683,-0.5702878 L447.32733,-1.1100669 L447.8078,-0.04875192 L448.2883,-0.32812652 L448.76877,-0.56144106 L449.24924,-1.095379 L449.72974,-0.045224443 L450.2102,-0.32121643 L450.6907,-0.5527748 L451.17117,-1.080979 L451.65164,-0.041769624 L452.13214,-0.31444177 L452.6126,-0.5442787 L453.09308,-1.06686 L453.57358,-0.03838604 L454.05405,-0.30780613 L454.53455,-0.53594875 L455.015,-1.0530131 L455.49548,-0.035072576 L455.97598,-0.30130258 L456.45645,-0.52778107 L456.93695,-1.0394319 L457.41742,-0.031823795 L457.8979,-0.2949227 L458.3784,-0.5197739 L458.85886,-1.0261078 L459.33932,-0.028641671 L459.81982,-0.28867024 L460.3003,-0.51191545 L460.7808,-1.0130353 L461.26126,-0.025522001 L461.74173,-0.28253675 L462.22223,-0.5042079 L462.7027,-1.0002056 L463.1832,-0.022463212 L463.66367,-0.27652094 L464.14413,-0.49664378 L464.62463,-0.9876148 L465.1051,-0.019464232 L465.58557,-0.27061975 L466.06607,-0.4892194 L466.54654,-0.97525406 L467.02704,-0.016522836 L467.5075,-0.26482847 L467.98798,-0.48193347 L468.46848,-0.96311694 L468.94894,-0.0136369215 L469.42944,-0.2591509 L469.9099,-0.47477853 L470.39038,-0.95119923 L470.87088,-0.010806534 L471.35135,-0.25357246 L471.83182,-0.4677552 L472.31232,-0.9394941 L472.7928,-0.0080290465 L473.2733,-0.24809705 L473.75375,-0.4608562 L474.23422,-0.9279966 L474.71472,-0.0053032837 L475.1952,-0.24272348 L475.6757,-0.45408025 L476.15616,-0.91670024 L476.63663,-0.0026273127 L477.11713,-0.23744412 L477.5976,-0.44742224 L478.07806,-0.9056023 L478.55856,-0 L479.03903,-0.23226118 L479.51953,-0.440883 L480,-0.89469606" fill="none" stroke="#35C788" stroke-linejoin="round" stroke-width="2"/>
</g>
</g>
<g>
<g>
<line stroke="black" stroke-width="1" x1="0" x2="0" y1="0" y2="10"/>
<line stroke="black" stroke-width="1" x1="96.09609609609609" x2="96.09609609609609" y1="0" y2="10"/>
<line stroke="black" stroke-width="1" x1="192.19219219219218" x2="192.19219219219218" y1="0" y2="10"/>
<line stroke="black" stroke-width="1" x1="288.2882882882883" x2="288.2882882882883" y1="0" y2="10"/>
<line stroke="black" stroke-width="1" x1="384.38438438438436" x2="384.38438438438436" y1="0" y2="10"/>
</g>
<line stroke="black" stroke-width="1" x1="0" x2="480" y1="0" y2="0"/>
<g>
<text font-size="12" text-anchor="middle" x="0" y="20">
0
</text>
<text font-size="12" text-anchor="middle" x="96.09609609609609" y="20">
200
</text>
<text font-size="12" text-anchor="middle" x="192.19219219219218" y="20">
400
</text>
<text font-size="12" text-anchor="middle" x="288.2882882882883" y="20">
600
</text>
<text font-size="12" text-anchor="middle" x="384.38438438438436" y="20">
800
</text>
</g>
<text font-size="12" text-anchor="middle" x="240" y="30">
Epochs
</text>
</g>
<g>
<g>
<line stroke="black" stroke-width="1" x1="0" x2="-10" y1="-0.00131419755799253" y2="-0.00131419755799253"/>
<line stroke="black" stroke-width="1" x1="0" x2="-10" y1="-72.15856857947468" y2="-72.15856857947468"/>
<line stroke="black" stroke-width="1" x1="0" x2="-10" y1="-144.31582296139132" y2="-144.31582296139132"/>
<line stroke="black" stroke-width="1" x1="0" x2="-10" y1="-216.47307734330803" y2="-216.47307734330803"/>
<line stroke="black" stroke-width="1" x1="0" x2="-10" y1="-288.63033172522466" y2="-288.63033172522466"/>
</g>
<line stroke="black" stroke-width="1" x1="0" x2="0" y1="0" y2="-340"/>
<g>
<text dominant-baseline="middle" font-size="12" text-anchor="end" x="-15" y="-0.00131419755799253">
0.00077
</text>
<text dominant-baseline="middle" font-size="12" text-anchor="end" x="-15" y="-72.15856857947468">
0.20077
</text>
<text dominant-baseline="middle" font-size="12" text-anchor="end" x="-15" y="-144.31582296139132">
0.40077
</text>
<text dominant-baseline="middle" font-size="12" text-anchor="end" x="-15" y="-216.47307734330803">
0.60077
</text>
<text dominant-baseline="middle" font-size="12" text-anchor="end" x="-15" y="-288.63033172522466">
0.80077
</text>
</g>
<text font-size="12" text-anchor="middle" transform="rotate(-90 -84 -170)" x="-84" y="-182">
Loss
</text>
</g>
</g>
</svg>